<svg width="474" height="126" viewBox="0 0 474 126" fill="none" xmlns="http://www.w3.org/2000/svg">
<path fill-rule="evenodd" clip-rule="evenodd" d="M52.0616 0.498982C38.5519 3.331 27.4193 9.11943 18.5981 17.8964C11.6251 24.8335 5.87152 33.5342 7.34404 34.9146C8.48081 35.981 32.7246 46.2567 33.0782 45.8223C33.2247 45.6417 35.3099 41.656 37.711 36.9661C44.7269 23.2595 57.1696 7.99886 66.5078 1.64764C68.9487 -0.0136501 68.8501 -0.0457536 61.5263 0.0164444C57.4166 0.0515562 53.1575 0.268247 52.0616 0.498982ZM73.0066 6.55025C63.501 11.5271 50.3729 27.3806 42.1923 43.7607L39.5511 49.0516L44.3114 51.1242C65.1279 60.19 65.924 60.4529 72.5633 60.4428C77.8854 60.4348 79.9846 59.9202 83.7376 57.7061C92.8139 52.3501 96.3965 44.3727 96.3965 29.5224C96.3965 7.69991 87.4997 -1.03791 73.0066 6.55025ZM103.081 17.6024C104.353 22.2412 103.714 39.9697 101.993 47.8156C101.106 51.8525 100.386 57.044 100.392 59.3524C100.405 65.1348 104.281 72.9958 109.218 77.2504C113.457 80.904 120.952 84.4974 121.72 83.2455C121.958 82.8582 122.917 78.7451 123.85 74.1043C127.507 55.9345 122.363 36.8838 109.543 21.1136C107.613 18.7401 105.197 16.3464 104.173 15.7937C102.495 14.8908 102.386 15.0704 103.081 17.6024ZM1.88237 45.6768C-0.292532 52.4002 -0.660165 68.6921 1.18596 76.5923C3.50134 86.5048 9.00286 97.1026 15.5595 104.28L21.1765 110.43L21.2642 96.5207C21.336 85.1796 21.7962 80.9441 23.7549 73.5827C25.8392 65.7538 26.4659 64.5098 28.4724 64.2239C33.3911 63.5216 33.5575 64.2299 30.9412 74.7584C27.7451 87.6204 27.3237 103.269 29.9688 110.922C32.4207 118.018 36.3212 121.241 42.4244 121.212C48.8685 121.182 54.1119 118.507 61.6588 111.397C70.7669 102.818 73.972 96.619 73.9471 87.6274C73.9252 79.643 72.4527 76.0967 66.9093 70.6764C64.1745 68.0019 56.5947 64.2881 34.7809 54.9333C19.0794 48.1999 5.53179 42.5007 4.67597 42.269C3.594 41.975 2.74317 43.0123 1.88237 45.6768ZM94.651 87.9544C88.1014 90.2999 86.6538 91.6121 78.8548 102.276C72.6699 110.731 59.5128 124.244 57.4635 124.244C56.8936 124.244 56.7392 124.752 57.1207 125.374C57.8978 126.64 69.8424 125.876 77.467 124.072C85.4702 122.179 97.604 115.646 104.05 109.759C109.317 104.95 118.323 93.2774 118.311 91.275C118.304 90.0461 109.005 86.7988 104.466 86.4406C101.666 86.2199 97.8481 86.8088 94.651 87.9544Z" fill="black"/>
<path d="M166 117V10.5H185.5V61.35L176.5 54.9H239.2L230.35 61.35V10.5H249.85V117H230.35V65.55L239.2 71.85H176.5L185.5 65.55V117H166Z" fill="black"/>
<path d="M294.098 118.8C285.698 118.8 278.948 116.9 273.848 113.1C268.748 109.2 266.198 103.8 266.198 96.9C266.198 90 268.348 84.6 272.648 80.7C276.948 76.8 283.498 74 292.298 72.3L318.848 67.05C318.848 61.35 317.548 57.1 314.948 54.3C312.348 51.4 308.498 49.95 303.398 49.95C298.798 49.95 295.148 51.05 292.448 53.25C289.848 55.35 288.048 58.4 287.048 62.4L267.548 61.5C269.148 53 273.048 46.5 279.248 42C285.448 37.4 293.498 35.1 303.398 35.1C314.798 35.1 323.398 38 329.198 43.8C335.098 49.5 338.048 57.7 338.048 68.4V97.5C338.048 99.6 338.398 101.05 339.098 101.85C339.898 102.65 341.048 103.05 342.548 103.05H345.098V117C344.498 117.2 343.498 117.35 342.098 117.45C340.798 117.55 339.448 117.6 338.048 117.6C334.748 117.6 331.798 117.1 329.198 116.1C326.598 115 324.598 113.15 323.198 110.55C321.798 107.85 321.098 104.2 321.098 99.6L322.748 100.8C321.948 104.3 320.198 107.45 317.498 110.25C314.898 112.95 311.598 115.05 307.598 116.55C303.598 118.05 299.098 118.8 294.098 118.8ZM297.998 104.85C302.298 104.85 305.998 104 309.098 102.3C312.198 100.6 314.598 98.25 316.298 95.25C317.998 92.25 318.848 88.7 318.848 84.6V80.1L298.148 84.3C293.848 85.2 290.748 86.55 288.848 88.35C287.048 90.05 286.148 92.3 286.148 95.1C286.148 98.2 287.148 100.6 289.148 102.3C291.248 104 294.198 104.85 297.998 104.85Z" fill="black"/>
<path d="M375.595 117C369.795 117 365.145 115.5 361.645 112.5C358.145 109.5 356.395 104.7 356.395 98.1V10.5H375.595V96.15C375.595 98.15 376.095 99.65 377.095 100.65C378.195 101.65 379.695 102.15 381.595 102.15H387.445V117H375.595Z" fill="black"/>
<path d="M434.554 118.8C426.654 118.8 419.704 117.1 413.704 113.7C407.804 110.2 403.204 105.3 399.904 99C396.704 92.7 395.104 85.35 395.104 76.95C395.104 68.45 396.704 61.1 399.904 54.9C403.204 48.6 407.804 43.75 413.704 40.35C419.704 36.85 426.654 35.1 434.554 35.1C442.454 35.1 449.354 36.85 455.254 40.35C461.154 43.75 465.704 48.6 468.904 54.9C472.204 61.1 473.854 68.45 473.854 76.95C473.854 85.35 472.204 92.7 468.904 99C465.704 105.3 461.154 110.2 455.254 113.7C449.354 117.1 442.454 118.8 434.554 118.8ZM434.554 103.2C440.754 103.2 445.504 100.9 448.804 96.3C452.204 91.7 453.904 85.25 453.904 76.95C453.904 68.75 452.204 62.35 448.804 57.75C445.504 53.05 440.754 50.7 434.554 50.7C428.354 50.7 423.554 53.05 420.154 57.75C416.754 62.35 415.054 68.75 415.054 76.95C415.054 85.25 416.754 91.7 420.154 96.3C423.554 100.9 428.354 103.2 434.554 103.2Z" fill="black"/>
</svg>
