<svg width="125" height="126" viewBox="0 0 125 126" fill="none" xmlns="http://www.w3.org/2000/svg">
<path fill-rule="evenodd" clip-rule="evenodd" d="M52.0616 0.498982C38.5519 3.331 27.4193 9.11943 18.5981 17.8964C11.6251 24.8335 5.87152 33.5342 7.34404 34.9146C8.48081 35.981 32.7246 46.2567 33.0782 45.8223C33.2247 45.6417 35.3099 41.656 37.711 36.9661C44.7269 23.2595 57.1696 7.99886 66.5078 1.64764C68.9487 -0.01365 68.8501 -0.0457536 61.5263 0.0164444C57.4166 0.0515562 53.1575 0.268247 52.0616 0.498982ZM73.0066 6.55025C63.501 11.5271 50.3729 27.3806 42.1923 43.7607L39.5511 49.0516L44.3114 51.1242C65.1279 60.19 65.924 60.4529 72.5633 60.4428C77.8854 60.4348 79.9846 59.9202 83.7377 57.7061C92.8139 52.3501 96.3965 44.3727 96.3965 29.5224C96.3965 7.69991 87.4997 -1.03791 73.0066 6.55025ZM103.081 17.6024C104.353 22.2412 103.714 39.9697 101.993 47.8156C101.106 51.8525 100.386 57.044 100.392 59.3524C100.405 65.1348 104.281 72.9958 109.218 77.2504C113.457 80.904 120.952 84.4974 121.72 83.2455C121.958 82.8582 122.917 78.7451 123.85 74.1043C127.507 55.9345 122.363 36.8838 109.543 21.1136C107.613 18.7401 105.197 16.3464 104.173 15.7937C102.495 14.8908 102.386 15.0704 103.081 17.6024ZM1.88237 45.6768C-0.292532 52.4002 -0.660165 68.6921 1.18596 76.5923C3.50134 86.5048 9.00286 97.1026 15.5595 104.28L21.1765 110.43L21.2642 96.5207C21.336 85.1796 21.7962 80.9441 23.7549 73.5827C25.8392 65.7538 26.4659 64.5098 28.4724 64.2239C33.3911 63.5216 33.5575 64.2299 30.9412 74.7584C27.7451 87.6204 27.3237 103.269 29.9688 110.922C32.4207 118.018 36.3212 121.241 42.4245 121.212C48.8685 121.182 54.1119 118.507 61.6588 111.397C70.7669 102.818 73.972 96.619 73.9471 87.6274C73.9252 79.643 72.4527 76.0967 66.9093 70.6764C64.1745 68.0019 56.5947 64.2881 34.7809 54.9333C19.0794 48.1999 5.53179 42.5007 4.67597 42.269C3.594 41.975 2.74317 43.0123 1.88237 45.6768ZM94.651 87.9544C88.1014 90.2999 86.6538 91.6121 78.8548 102.276C72.6699 110.731 59.5128 124.244 57.4635 124.244C56.8936 124.244 56.7392 124.752 57.1207 125.374C57.8978 126.64 69.8424 125.876 77.467 124.072C85.4702 122.179 97.604 115.646 104.05 109.759C109.317 104.95 118.323 93.2774 118.311 91.275C118.304 90.0461 109.005 86.7988 104.466 86.4406C101.666 86.2199 97.8481 86.8088 94.651 87.9544Z" fill="white"/>
</svg>
